<svg width="31" height="14" viewBox="0 0 31 14" fill="none" xmlns="http://www.w3.org/2000/svg">
<path d="M20.3892 1.05953C20.3892 0.831678 20.4527 0.603824 20.5925 0.41618C20.9356 -0.0529313 21.5582 -0.13335 22.0029 0.215132L30.3892 6.99714L22.0156 13.7791C21.5709 14.141 20.9483 14.0472 20.6052 13.5781C20.2621 13.109 20.3511 12.4522 20.7958 12.0903L27.0982 6.99714L20.7831 1.90393C20.5289 1.70288 20.3892 1.38121 20.3892 1.05953Z" fill="#057E81"/>
<path d="M-4.37114e-08 7C-1.96385e-08 6.44927 0.399485 6 0.889175 6L21.5 6C21.9897 6 22.3892 6.44927 22.3892 7C22.3892 7.55072 21.9897 8 21.5 8L0.889175 8C0.399485 8 -6.77844e-08 7.55072 -4.37114e-08 7Z" fill="#057E81"/>
</svg>
