<svg width="174" height="21" viewBox="0 0 174 21" fill="none" xmlns="http://www.w3.org/2000/svg">
<path d="M1.28369 12.352C1.00763 12.352 0.731574 12.2735 0.50423 12.1009C-0.0641293 11.6771 -0.161562 10.9081 0.260647 10.3587L8.4775 0L16.6944 10.343C17.1328 10.8924 17.0191 11.6614 16.4508 12.0852C15.8824 12.509 15.0867 12.3991 14.6483 11.8498L8.4775 4.06502L2.30674 11.8655C2.06316 12.1794 1.67343 12.352 1.28369 12.352Z" fill="#057E81"/>
<path d="M8.47769 20.9998C5.5547 20.9998 2.71291 19.8227 0.699291 17.751C0.212126 17.2487 0.228364 16.464 0.748007 15.9931C1.26765 15.5223 2.07959 15.5537 2.56676 16.0402C4.10945 17.6254 6.20426 18.5043 8.46146 18.5043C10.7187 18.5043 12.8135 17.6254 14.3562 16.0402C14.8433 15.538 15.6553 15.5223 16.1749 15.9931C16.6945 16.464 16.7108 17.2487 16.2236 17.751C14.21 19.807 11.3844 20.9998 8.44522 20.9998" fill="#057E81"/>
<path d="M8.4779 16.0721C7.86083 16.0721 7.35742 15.5856 7.35742 14.9891V11.0654C7.35742 10.469 7.86083 9.98242 8.4779 9.98242C9.09498 9.98242 9.59838 10.469 9.59838 11.0654V14.9891C9.59838 15.5856 9.09498 16.0721 8.4779 16.0721Z" fill="#057E81"/>
<path d="M24.3758 1.91504H28.4355V14.9419C28.4355 18.285 26.4868 20.1213 22.9468 20.1213C22.1186 20.1213 21.0143 20.0271 20.1699 19.8702L20.3323 16.5271C20.8195 16.6056 21.3229 16.6527 21.7613 16.6527C23.6126 16.6527 24.392 15.868 24.392 14.0316V1.91504H24.3758Z" fill="#057E81"/>
<path d="M39.5102 13.231C39.5102 10.9238 38.4709 9.51122 36.8632 9.51122C35.2556 9.51122 34.2163 10.9238 34.2163 13.231C34.2163 15.5381 35.2556 16.9507 36.8632 16.9507C38.4709 16.9507 39.5102 15.5381 39.5102 13.231ZM30.3027 13.2623C30.3027 9.11885 32.9334 6.34082 36.8795 6.34082C40.8255 6.34082 43.4075 9.08746 43.4075 13.1996C43.4075 17.3117 40.7768 20.1211 36.8307 20.1211C32.8847 20.1211 30.3027 17.3745 30.3027 13.2623Z" fill="#057E81"/>
<path d="M45.0469 19.7603V1.91504H48.9442V7.87916C50.0647 6.84329 51.3313 6.34105 52.7603 6.34105C55.6021 6.34105 57.3072 8.19307 57.3072 11.2693V19.7603H53.4099V11.7872C53.4099 10.2962 52.7116 9.49576 51.4125 9.49576C50.5356 9.49576 49.6425 9.90383 48.9442 10.6572V19.7603H45.0469Z" fill="#057E81"/>
<path d="M66.9535 16.6367V13.7959C63.6246 14.0941 62.7964 14.4708 62.7964 15.6322C62.7964 16.6681 63.657 17.343 64.9561 17.343C65.7194 17.343 66.3852 17.1233 66.9535 16.6367ZM70.8508 15.2085C70.8508 17.0605 71.0619 17.7511 71.7927 18.3318L69.2919 20.121C68.3338 19.7757 67.733 19.3677 67.392 18.7555C66.2715 19.6816 65.0698 20.121 63.6733 20.121C60.8152 20.121 58.8828 18.3789 58.8828 15.8206C58.8828 12.9798 61.0101 11.8497 66.9535 11.5515V11.2219C66.9535 9.96631 66.304 9.41698 64.8262 9.41698C63.5596 9.41698 62.0656 9.82505 60.4093 10.5784L59.37 7.69053C61.5785 6.78021 63.4784 6.35645 65.4271 6.35645C69.1295 6.35645 70.8671 7.86317 70.8671 11.0807V15.2242L70.8508 15.2085Z" fill="#057E81"/>
<path d="M73.2871 19.7601V6.68611H77.1357V7.92602C78.2237 6.87445 79.5228 6.34082 81.0168 6.34082C83.8586 6.34082 85.5637 8.19284 85.5637 11.2691V19.7601H81.6663V11.787C81.6663 10.296 80.9681 9.49553 79.669 9.49553C78.7921 9.49553 77.8989 9.9036 77.2007 10.657V19.7601H73.3033H73.2871Z" fill="#057E81"/>
<path d="M87.8203 19.7601V6.68611H91.6689V7.92602C92.7569 6.87445 94.056 6.34082 95.55 6.34082C98.3918 6.34082 100.097 8.19284 100.097 11.2691V19.7601H96.1996V11.787C96.1996 10.296 95.5013 9.49553 94.2022 9.49553C93.3253 9.49553 92.4321 9.9036 91.7339 10.657V19.7601H87.8365H87.8203Z" fill="#057E81"/>
<path d="M105.569 12.1009H110.636C110.555 10.3117 109.596 9.16593 108.135 9.16593C106.673 9.16593 105.634 10.3274 105.553 12.1009M101.672 13.3094C101.672 9.13454 104.303 6.34082 108.184 6.34082C112.065 6.34082 114.322 9.00898 114.322 13.1996V14.4552H105.585C105.878 16.2444 106.885 17.0919 108.655 17.0919C109.905 17.0919 111.172 16.6368 112.292 15.7893L113.883 18.3005C112.341 19.4776 110.506 20.1054 108.476 20.1054C104.286 20.1054 101.688 17.4843 101.688 13.2937" fill="#057E81"/>
<path d="M120.965 6.34082C122.686 6.34082 124.472 6.87445 126.145 7.84755L124.472 10.5314C123.255 9.69956 122.02 9.24441 121.062 9.24441C120.153 9.24441 119.536 9.65248 119.536 10.2803C119.536 12.2893 126.405 11.1906 126.405 15.7422C126.405 18.3632 124.164 20.1211 120.867 20.1211C118.886 20.1211 116.808 19.4933 115.021 18.3632L116.694 15.6794C118.172 16.6525 119.666 17.2175 120.851 17.2175C121.858 17.2175 122.524 16.8094 122.524 16.1659C122.524 14.1099 115.655 15.1614 115.655 10.657C115.655 8.11436 117.831 6.35652 120.981 6.35652" fill="#057E81"/>
<path d="M132.996 6.34082C134.717 6.34082 136.504 6.87445 138.176 7.84755L136.504 10.5314C135.286 9.69956 134.052 9.24441 133.094 9.24441C132.184 9.24441 131.567 9.65248 131.567 10.2803C131.567 12.2893 138.436 11.1906 138.436 15.7422C138.436 18.3632 136.195 20.1211 132.899 20.1211C130.918 20.1211 128.839 19.4933 127.053 18.3632L128.725 15.6794C130.203 16.6525 131.697 17.2175 132.882 17.2175C133.889 17.2175 134.555 16.8094 134.555 16.1659C134.555 14.1099 127.686 15.1614 127.686 10.657C127.686 8.11436 129.862 6.35652 133.012 6.35652" fill="#057E81"/>
<path d="M139.169 6.68612H141.41V3.13904L145.307 2.40137V6.67043H148.587V9.47984H145.307V15.2399C145.307 16.2758 145.81 16.778 146.817 16.778C147.337 16.778 147.986 16.6525 148.457 16.4798L148.896 19.352C147.694 19.7601 146.557 19.9485 145.534 19.9485C142.855 19.9485 141.393 18.5673 141.393 15.9776V9.49554H139.152V6.68612H139.169Z" fill="#057E81"/>
<path d="M150.144 6.68594H154.042V19.7599H150.144V6.68594ZM152.093 5.39894C150.794 5.39894 149.836 4.48863 149.836 3.26441C149.836 2.0402 150.794 1.12988 152.093 1.12988C153.392 1.12988 154.35 2.0402 154.35 3.26441C154.35 4.48863 153.392 5.39894 152.093 5.39894Z" fill="#057E81"/>
<path d="M161.349 19.76H157.452V9.49542H155.211V6.686H157.452V6.05819C157.452 2.99766 159.352 1.55371 162.324 1.55371C163.006 1.55371 163.85 1.63219 164.532 1.75775L164.223 4.69272C163.866 4.64564 163.412 4.56716 162.973 4.56716C161.966 4.56716 161.365 4.99093 161.365 6.19945V6.6703H166.513V3.12322L170.41 2.38555V6.65461H173.691V9.46402H170.41V15.2241C170.41 16.3855 171.011 16.7622 171.921 16.7622C172.473 16.7622 173.122 16.6367 173.561 16.464L173.999 19.3362C173.009 19.6658 171.84 19.9326 170.638 19.9326C167.958 19.9326 166.497 18.5515 166.497 15.9618V9.47972H161.349V19.7443V19.76Z" fill="#057E81"/>
</svg>
